<svg id="Gradient" viewBox="0 0 64 64" xmlns="http://www.w3.org/2000/svg" xmlns:xlink="http://www.w3.org/1999/xlink"><linearGradient id="lg1"><stop offset="0" stop-color="#fedbb8"/><stop offset="1" stop-color="#0f3ea4"/></linearGradient><linearGradient id="SVGID_1_" gradientUnits="userSpaceOnUse" x1="31.974" x2="31.974" xlink:href="#lg1" y1="64" y2="0"/><linearGradient id="SVGID_2_" gradientUnits="userSpaceOnUse" x1="32.002" x2="32.002" xlink:href="#lg1" y1="64" y2="0"/><path d="m38.219 34.031h-12.49c-1.104 0-2 .896-2 2s.896 2 2 2h12.49c1.104 0 2-.896 2-2s-.896-2-2-2z" fill="url(#SVGID_1_)"/><path d="m35.783 10.361c-1.194-.207-2.418-.312-3.638-.312-9.449 0-18.094 6.156-21.022 14.97-3.437 10.343 1.497 22.107 11.235 26.781 2.973 1.427 6.167 2.15 9.495 2.15 7.741 0 14.99-4.031 18.917-10.521 2.096-3.463 3.203-7.404 3.203-11.399.001-10.555-7.82-19.871-18.19-21.669zm11.566 30.998c-3.207 5.3-9.145 8.592-15.495 8.592-2.724 0-5.336-.591-7.765-1.757-7.957-3.819-11.985-13.444-9.171-21.913 2.394-7.202 9.478-12.232 17.228-12.232.991 0 1.984.085 2.954.253 8.341 1.445 14.874 9.233 14.874 17.729 0 3.264-.909 6.49-2.625 9.328z" fill="url(#SVGID_2_)"/><path d="m38.219 26.031h-12.49c-1.104 0-2 .896-2 2s.896 2 2 2h12.49c1.104 0 2-.896 2-2s-.896-2-2-2z" fill="url(#SVGID_1_)"/></svg>